<svg width="117" height="59" viewBox="0 0 117 59" fill="none" xmlns="http://www.w3.org/2000/svg">
<path d="M40.9381 17.041H50.2993C51.3019 17.041 51.8545 17.6085 51.838 18.545C51.838 19.2465 51.3367 19.7991 50.6517 19.8818C50.3506 19.9149 50.0329 19.9314 49.7318 19.9314H32.0104C31.6431 19.9314 31.2576 19.9314 30.9234 19.7974C30.2731 19.5658 29.9042 18.8792 30.0217 18.2273C30.1226 17.5754 30.6735 17.1072 31.4263 17.0741C32.0617 17.041 32.697 17.0576 33.3323 17.0576H40.9712L40.9381 17.041Z" fill="#003049"/>
<path d="M40.835 34.1326H51.9848C53.1049 34.1326 53.7236 34.7514 53.6558 35.721C53.6062 36.2901 53.3216 36.7071 52.769 36.8576C52.4017 36.9751 51.9996 37.0247 51.6158 37.0247H29.7532C29.1857 37.0247 28.6331 36.9403 28.2658 36.4556C27.9133 35.989 27.8803 35.4711 28.097 34.9351C28.3319 34.3841 28.8167 34.1492 29.3842 34.1326C30.9229 34.0996 32.4599 34.083 33.9986 34.083H40.835V34.1326Z" fill="#003049"/>
<path d="M40.8002 0H52.0674C52.7358 0 53.2371 0.233285 53.5217 0.835526C53.8724 1.55524 53.5713 2.40731 52.8202 2.65714C52.3023 2.82424 51.7332 2.85733 51.1822 2.87388H37.6914C35.251 2.87388 32.8106 2.87388 30.3702 2.89042C30.0194 2.89042 29.6687 2.89042 29.3179 2.85733C28.3815 2.75806 27.9298 2.25675 27.9629 1.36993C27.996 0.51786 28.5138 0.0165451 29.4503 0.0165451H40.7836L40.8002 0Z" fill="#003049"/>
<path d="M69.3328 19.5745V4.17928C69.3328 3.34376 68.9043 2.92517 68.0456 2.92517H58.6844C57.4964 2.92517 56.7949 2.0731 57.0961 1.07047C57.2632 0.501315 57.647 0.167105 58.2162 0.0661802C58.5007 0.0165451 58.7836 0.0165451 59.0682 0.0165451C66.8411 0.0165451 74.614 0 82.3868 0C82.6714 0 82.9543 0 83.2389 0.0496352C84.1588 0.167105 84.627 0.734601 84.5592 1.63796C84.5096 2.40731 83.9735 2.89208 83.1049 2.89208C79.8455 2.90862 76.5861 2.94171 73.3251 2.94171C72.6115 2.94171 72.2546 3.29247 72.2546 3.99398V35.7042C72.1703 36.6076 71.6193 37.1585 70.8169 37.1585C70.0144 37.1585 69.3956 36.5232 69.3129 35.6546V19.591L69.3295 19.5745H69.3328Z" fill="#003049"/>
<path d="M102.286 5.55461C101.316 8.01155 100.413 10.3345 99.5109 12.6756C96.5179 20.3823 93.5266 28.0873 90.5518 35.794C90.335 36.3615 90.0504 36.8976 89.4151 37.0647C88.8642 37.2152 88.3446 37.1143 87.9443 36.6808C87.5257 36.2292 87.4429 35.6947 87.6597 35.1256C88.3612 33.2874 89.0644 31.4476 89.7824 29.6095C93.4256 20.2483 97.0689 10.8871 100.714 1.52589C100.798 1.30915 100.881 1.1073 100.982 0.907103C101.266 0.405787 101.584 -0.0458927 102.252 0.0037425C102.921 0.0533777 103.422 0.371043 103.674 1.00637C104.509 3.07947 105.361 5.15257 106.164 7.22401C109.691 16.2841 113.2 25.3442 116.711 34.4042C116.862 34.7715 116.963 35.1901 116.996 35.5905C117.045 36.3929 116.662 36.9108 115.993 37.0614C115.224 37.245 114.605 36.977 114.289 36.2258C113.887 35.3225 113.553 34.4042 113.202 33.4843C109.641 24.3233 106.097 15.1805 102.537 6.01953C102.487 5.90206 102.436 5.80279 102.304 5.5513H102.287L102.286 5.55461Z" fill="#003049"/>
<path d="M7.69014 18.3268C7.43866 18.5436 7.22192 18.7454 7.00518 18.9622C5.86853 20.1153 4.73189 21.2685 3.5787 22.4052C3.14356 22.8403 2.95991 23.3251 2.95991 23.9422C2.95991 27.7029 2.95991 31.4487 2.94337 35.2094V35.8282C2.85899 36.5297 2.27495 37.0658 1.57178 37.1154C0.853725 37.165 0.251485 36.715 0.100925 35.9953C0.0347446 35.6776 0 35.3434 0 35.0257V2.07791C0 1.72716 0.0165451 1.3764 0.11747 1.04219C0.30112 0.390319 0.868616 0.00481902 1.55524 0.0213641C2.20711 0.0213641 2.70843 0.421755 2.87553 1.10837C2.95826 1.44258 2.95826 1.79334 2.95826 2.14575V17.6584C2.95826 18.0092 2.99135 18.3781 3.02444 18.8612C3.82687 18.0257 4.51184 17.2894 5.215 16.5879C10.3969 11.3895 15.5954 6.19102 20.7938 1.0091C21.0619 0.757619 21.3448 0.507789 21.6459 0.307594C22.3474 -0.144087 22.9497 -0.0927969 23.4344 0.425064C23.9688 1.01076 24.0532 1.77845 23.5188 2.36414C22.4483 3.55043 21.3299 4.70527 20.1916 5.82372C16.8826 9.13438 13.5719 12.4269 10.2282 15.7193C9.89395 16.0535 9.94358 16.2537 10.1951 16.5879C14.558 22.5061 18.9044 28.4226 23.2342 34.3408C23.451 34.6419 23.6859 34.943 23.7852 35.2938C24.0185 35.9953 23.6843 36.715 23.0655 37.0161C22.4467 37.3172 21.7286 37.1667 21.2604 36.5479C20.5754 35.6793 19.9236 34.7759 19.2717 33.8908C15.511 28.8098 11.7652 23.7271 8.0045 18.6461C7.93832 18.5452 7.85394 18.4625 7.71992 18.3285H7.68683L7.69014 18.3268Z" fill="#003049"/>
<path d="M0 58.2314V47.3478H4.07322C4.99525 47.3478 5.78893 47.4978 6.45243 47.7979C7.11593 48.0872 7.62396 48.5139 7.9765 49.0725C8.33989 49.6221 8.52068 50.291 8.52068 51.0775C8.52068 51.8639 8.33989 52.5075 7.9765 53.068C7.62396 53.6176 7.11593 54.0425 6.45243 54.3426C5.78893 54.6318 4.99706 54.7783 4.07322 54.7783H0.638192L1.15164 54.2504V58.2314H0ZM7.43232 58.2314L4.63367 54.2829H5.87751L8.69243 58.2314H7.43232ZM1.14983 54.3444L0.636384 53.8002H4.04068C5.12904 53.8002 5.95345 53.5616 6.51209 53.0843C7.08158 52.607 7.36723 51.9381 7.36723 51.0793C7.36723 50.2205 7.08158 49.5353 6.51209 49.0581C5.95164 48.5808 5.12904 48.3421 4.04068 48.3421H0.638192L1.15164 47.7979V54.3444H1.14983ZM13.8179 52.2129H19.5706V53.1927H13.8179V52.2129ZM13.9408 57.2352H20.4872V58.2296H12.791V47.3478H20.254V48.3421H13.9408V57.2352ZM23.0057 58.2314L27.981 47.3478H29.1164L34.0918 58.2314H32.8786L28.3083 48.0167H28.7747L24.2043 58.2314H23.0075H23.0057ZM24.9636 55.3225L25.3053 54.3896H31.633L31.9747 55.3225H24.9618H24.9636ZM37.4454 58.2314V47.3478H38.5953V57.237H44.6897V58.2314H37.4436H37.4454ZM54.8068 52.2129H60.5596V53.1927H54.8068V52.2129ZM54.9315 57.2352H61.478V58.2296H53.7817V47.3478H61.2448V48.3421H54.9315V57.2352ZM68.7367 58.3236C67.9286 58.3236 67.1512 58.1934 66.4045 57.9349C65.6687 57.6655 65.0992 57.3238 64.6942 56.908L65.1444 56.0221C65.5277 56.3946 66.0411 56.7109 66.6829 56.9713C67.3356 57.2208 68.0208 57.3437 68.7349 57.3437C69.449 57.3437 69.9733 57.2605 70.3982 57.0942C70.8339 56.9188 71.1503 56.6838 71.3474 56.3946C71.5553 56.1053 71.6583 55.7835 71.6583 55.4309C71.6583 55.0061 71.5336 54.6644 71.2859 54.404C71.0472 54.1455 70.7309 53.943 70.3367 53.7984C69.9426 53.6429 69.5069 53.5091 69.0314 53.3934C68.5541 53.2795 68.0768 53.1602 67.6014 53.0355C67.1241 52.9017 66.6847 52.7245 66.2798 52.5075C65.8857 52.2906 65.5639 52.0049 65.3162 51.6524C65.0775 51.289 64.9582 50.819 64.9582 50.2368C64.9582 49.6981 65.0974 49.2045 65.3776 48.7597C65.6687 48.3042 66.108 47.9408 66.6992 47.6714C67.2904 47.3912 68.0461 47.252 68.9699 47.252C69.581 47.252 70.1885 47.3405 70.7887 47.5159C71.3907 47.6822 71.9078 47.9155 72.3435 48.2156L71.9548 49.1322C71.4884 48.8212 70.9912 48.5934 70.4615 48.4488C69.9426 48.3042 69.44 48.2318 68.9537 48.2318C68.301 48.2318 67.7623 48.3204 67.3374 48.4958C66.9125 48.6712 66.5962 48.9098 66.3883 49.2117C66.1912 49.501 66.0936 49.8336 66.0936 50.2061C66.0936 50.6309 66.2129 50.9726 66.4515 51.233C66.701 51.4915 67.021 51.694 67.4151 51.8386C67.8201 51.9833 68.2594 52.1134 68.7367 52.2273C69.214 52.3412 69.6859 52.466 70.1523 52.5998C70.6296 52.7335 71.0635 52.9107 71.4576 53.1277C71.8626 53.3356 72.1826 53.6158 72.4212 53.9665C72.6707 54.3191 72.7937 54.7801 72.7937 55.3496C72.7937 55.8775 72.649 56.371 72.358 56.8266C72.0687 57.2714 71.6222 57.6348 71.0201 57.915C70.4289 58.1844 69.6678 58.32 68.7349 58.32L68.7367 58.3236ZM78.8194 58.2314V48.3421H74.9939V47.3478H83.7948V48.3421H79.9693V58.2314H78.8194ZM84.8994 58.2314L89.8748 47.3478H91.0102L95.9855 58.2314H94.7724L90.202 48.0167H90.6685L86.0981 58.2314H84.9012H84.8994ZM86.8592 55.3225L87.2009 54.3896H93.5286L93.8703 55.3225H86.8574H86.8592ZM100.908 58.2314V48.3421H97.0829V47.3478H105.884V48.3421H102.058V58.2314H100.908ZM110.302 52.2129H116.055V53.1927H110.302V52.2129ZM110.427 57.2352H116.974V58.2296H109.277V47.3478H116.74V48.3421H110.427V57.2352Z" fill="#003049"/>
</svg>