<svg width="80" height="80" viewBox="0 0 80 80" fill="none" xmlns="http://www.w3.org/2000/svg">
<circle cx="40" cy="40" r="40" fill="white"/>
<mask id="path-2-outside-1_758_214" maskUnits="userSpaceOnUse" x="25" y="27" width="31" height="30" fill="black">
<rect fill="white" x="25" y="27" width="31" height="30"/>
<path d="M27.2841 56L39.1102 40.6581L39.0569 42.5225L27.8168 28.033H32.0785L41.2943 40.0188L39.6962 39.9656L48.912 28.033H53.0671L41.7204 42.6824L41.7737 40.6581L53.7063 56H49.3914L39.6429 43.2151L41.1345 43.4281L31.5458 56H27.2841Z"/>
</mask>
<path d="M27.2841 56L39.1102 40.6581L39.0569 42.5225L27.8168 28.033H32.0785L41.2943 40.0188L39.6962 39.9656L48.912 28.033H53.0671L41.7204 42.6824L41.7737 40.6581L53.7063 56H49.3914L39.6429 43.2151L41.1345 43.4281L31.5458 56H27.2841Z" fill="#003049"/>
<path d="M27.2841 56L26.4921 55.3895L25.2507 57H27.2841V56ZM39.1102 40.6581L40.1098 40.6866L40.1977 37.6093L38.3182 40.0476L39.1102 40.6581ZM39.0569 42.5225L38.2668 43.1355L39.9768 45.3399L40.0565 42.5511L39.0569 42.5225ZM27.8168 28.033V27.033H25.7755L27.0267 28.6459L27.8168 28.033ZM32.0785 28.033L32.8712 27.4234L32.571 27.033H32.0785V28.033ZM41.2943 40.0188L41.261 41.0183L43.3784 41.0889L42.087 39.4093L41.2943 40.0188ZM39.6962 39.9656L38.9047 39.3543L37.711 40.8999L39.6628 40.965L39.6962 39.9656ZM48.912 28.033V27.033H48.4208L48.1205 27.4217L48.912 28.033ZM53.0671 28.033L53.8577 28.6453L55.1065 27.033H53.0671V28.033ZM41.7204 42.6824L40.7208 42.6561L40.6404 45.7098L42.511 43.2947L41.7204 42.6824ZM41.7737 40.6581L42.5631 40.0441L40.8476 37.8385L40.7741 40.6318L41.7737 40.6581ZM53.7063 56V57H55.751L54.4957 55.3861L53.7063 56ZM49.3914 56L48.5962 56.6063L48.8964 57H49.3914V56ZM39.6429 43.2151L39.7843 42.2251L37.3672 41.8798L38.8477 43.8214L39.6429 43.2151ZM41.1345 43.4281L41.9296 44.0346L42.9633 42.6793L41.2759 42.4382L41.1345 43.4281ZM31.5458 56V57H32.0407L32.3409 56.6064L31.5458 56ZM28.0761 56.6105L39.9022 41.2686L38.3182 40.0476L26.4921 55.3895L28.0761 56.6105ZM38.1106 40.6295L38.0573 42.494L40.0565 42.5511L40.1098 40.6866L38.1106 40.6295ZM39.847 41.9096L28.607 27.42L27.0267 28.6459L38.2668 43.1355L39.847 41.9096ZM27.8168 29.033H32.0785V27.033H27.8168V29.033ZM31.2857 28.6425L40.5015 40.6284L42.087 39.4093L32.8712 27.4234L31.2857 28.6425ZM41.3276 39.0194L39.7295 38.9661L39.6628 40.965L41.261 41.0183L41.3276 39.0194ZM40.4876 40.5768L49.7034 28.6442L48.1205 27.4217L38.9047 39.3543L40.4876 40.5768ZM48.912 29.033H53.0671V27.033H48.912V29.033ZM52.2765 27.4206L40.9298 42.07L42.511 43.2947L53.8577 28.6453L52.2765 27.4206ZM42.7201 42.7087L42.7734 40.6844L40.7741 40.6318L40.7208 42.6561L42.7201 42.7087ZM40.9844 41.272L52.917 56.6139L54.4957 55.3861L42.5631 40.0441L40.9844 41.272ZM53.7063 55H49.3914V57H53.7063V55ZM50.1866 55.3937L40.4381 42.6087L38.8477 43.8214L48.5962 56.6063L50.1866 55.3937ZM39.5015 44.205L40.993 44.4181L41.2759 42.4382L39.7843 42.2251L39.5015 44.205ZM40.3393 42.8217L30.7506 55.3936L32.3409 56.6064L41.9296 44.0346L40.3393 42.8217ZM31.5458 55H27.2841V57H31.5458V55Z" fill="black" mask="url(#path-2-outside-1_758_214)"/>
</svg>
