<svg width="33" height="26" viewBox="0 0 33 26" fill="none" xmlns="http://www.w3.org/2000/svg">
<path d="M3.25 0C2.18106 0 1.3 0.881055 1.3 1.95V11.8219C1.30254 11.8625 1.31016 11.9031 1.32031 11.9437C1.32031 11.9514 1.32031 11.9564 1.32031 11.9641C1.02832 12.4236 0.789649 12.9137 0.609375 13.4469C0.205664 14.6377 0.0330078 16.0037 0 17.55V18.2C0 18.2203 0 18.2406 0 18.2609V26H4.55V23.4C4.55 22.8592 4.68203 22.5773 4.85469 22.4047C5.02734 22.232 5.30918 22.1 5.85 22.1H26.65C27.1908 22.1 27.4727 22.232 27.6453 22.4047C27.818 22.5773 27.95 22.8592 27.95 23.4V26H32.5V18.3016C32.5025 18.2686 32.5025 18.233 32.5 18.2C32.5 17.9766 32.5051 17.7658 32.5 17.55C32.467 16.0037 32.2943 14.6377 31.8906 13.4469C31.7104 12.9187 31.4691 12.4389 31.1797 11.9844C31.1924 11.9311 31.2 11.8777 31.2 11.8219V1.95C31.2 0.881055 30.3189 0 29.25 0H3.25ZM3.25 1.3H29.25C29.6156 1.3 29.9 1.58437 29.9 1.95V10.5016C29.74 10.367 29.5699 10.2375 29.3922 10.1156C28.958 9.81602 28.4857 9.53672 27.95 9.30312V6.5C27.95 6.04297 27.6504 5.6875 27.3203 5.46406C26.9902 5.24062 26.5865 5.08574 26.0813 4.95625C25.0707 4.69727 23.6514 4.55 21.775 4.55C19.8986 4.55 18.4793 4.69727 17.4688 4.95625C16.9762 5.0832 16.575 5.22793 16.25 5.44375C15.925 5.22793 15.5238 5.0832 15.0313 4.95625C14.0207 4.69727 12.6014 4.55 10.725 4.55C8.84863 4.55 7.4293 4.69727 6.41875 4.95625C5.91348 5.08574 5.50977 5.24062 5.17969 5.46406C4.84961 5.6875 4.55 6.04297 4.55 6.5V9.30312C4.01426 9.53672 3.54199 9.81602 3.10781 10.1156C2.93008 10.2375 2.75996 10.367 2.6 10.5016V1.95C2.6 1.58437 2.88438 1.3 3.25 1.3ZM10.725 5.85C12.5328 5.85 13.8734 6.00234 14.7063 6.21562C15.1227 6.32227 15.4096 6.45176 15.5391 6.54062C15.5924 6.57617 15.5949 6.58125 15.6 6.58125V7.8C11.3268 7.82793 8.16309 8.14785 5.85 8.85625V6.58125C5.85508 6.58125 5.85762 6.57617 5.91094 6.54062C6.04043 6.45176 6.32734 6.32227 6.74375 6.21562C7.57656 6.00234 8.91719 5.85 10.725 5.85ZM21.775 5.85C23.5828 5.85 24.9234 6.00234 25.7563 6.21562C26.1727 6.32227 26.4596 6.45176 26.5891 6.54062C26.6424 6.57617 26.6449 6.58125 26.65 6.58125V8.85625C24.3369 8.14785 21.1732 7.82793 16.9 7.8V6.58125C16.9051 6.58125 16.9076 6.57617 16.9609 6.54062C17.0904 6.45176 17.3773 6.32227 17.7938 6.21562C18.6266 6.00234 19.9672 5.85 21.775 5.85ZM16.1281 9.1C16.1967 9.11016 16.2627 9.11016 16.3313 9.1C16.3516 9.1 16.3719 9.1 16.3922 9.1C22.8973 9.11016 26.6551 9.79062 28.6609 11.1719C29.6715 11.8676 30.2834 12.7309 30.6719 13.8734C31.0096 14.8687 31.1467 16.0951 31.1797 17.55H1.32031C1.35332 16.0951 1.49043 14.8687 1.82813 13.8734C2.2166 12.7309 2.82852 11.8676 3.83906 11.1719C5.84492 9.78809 9.61035 9.10762 16.1281 9.1ZM1.3 18.85H31.2V24.7H29.25V23.4C29.25 22.6408 29.057 21.9477 28.5797 21.4703C28.1023 20.993 27.4092 20.8 26.65 20.8H5.85C5.09082 20.8 4.39766 20.993 3.92031 21.4703C3.44297 21.9477 3.25 22.6408 3.25 23.4V24.7H1.3V18.85Z" fill="#F2F2F2"/>
</svg>
