<svg width="44" height="43" viewBox="0 0 44 43" fill="none" xmlns="http://www.w3.org/2000/svg">
<path fill-rule="evenodd" clip-rule="evenodd" d="M37.2143 0C40.4515 0 43.0756 2.62422 43.0756 5.86133V37.1218C43.0756 40.359 40.4515 42.9831 37.2143 42.9831H5.95386C2.71674 42.9831 0.0925293 40.359 0.0925293 37.1218V5.86133C0.0925293 2.62422 2.71674 0 5.95386 0H37.2143ZM37.2143 3.90755C38.2934 3.90755 39.1681 4.7823 39.1681 5.86133V37.1218C39.1681 38.2008 38.2934 39.0755 37.2143 39.0755H27.4454V25.3989H31.5018C32.3427 25.3989 33.0893 24.8608 33.3554 24.0629L34.2209 21.4663C34.5372 20.5174 33.8309 19.5376 32.8308 19.5376H27.4454V15.6301C27.4454 14.6532 28.4223 13.6763 29.3992 13.6763H33.3067C34.3858 13.6763 35.2605 12.8015 35.2605 11.7225V10.3822C35.2605 9.75113 34.8575 9.18529 34.2471 9.02424C31.6861 8.34839 29.3992 8.34839 29.3992 8.34839C24.5147 8.34839 21.5841 11.7225 21.5841 14.6532V19.5376H17.6765C16.5975 19.5376 15.7227 20.4123 15.7227 21.4914V23.4451C15.7227 24.5242 16.5975 25.3989 17.6765 25.3989H21.5841V39.0755H5.95386C4.87483 39.0755 4.00008 38.2008 4.00008 37.1218V5.86133C4.00008 4.7823 4.87483 3.90755 5.95386 3.90755H37.2143Z" fill="#003049"/>
</svg>
