<svg width="1107" height="57" viewBox="0 0 1107 57" fill="none" xmlns="http://www.w3.org/2000/svg">
<path d="M891.248 3.10804C891.248 1.99881 892.147 1.09961 893.257 1.09961C894.366 1.09961 895.265 1.99881 895.265 3.10804V54.2238C895.265 55.333 894.366 56.2322 893.257 56.2322C892.147 56.2322 891.248 55.333 891.248 54.2238V3.10804ZM854.388 54.2238C854.388 55.333 853.489 56.2322 852.38 56.2322C851.271 56.2322 850.371 55.333 850.371 54.2238V3.10804C850.371 1.99881 851.271 1.09961 852.38 1.09961C853.489 1.09961 854.388 1.99881 854.388 3.10804V54.2238ZM891.721 28.2327C891.721 29.2115 890.927 30.0049 889.949 30.0049H855.688C854.709 30.0049 853.916 29.2115 853.916 28.2327C853.916 27.254 854.709 26.4606 855.688 26.4606H889.949C890.927 26.4606 891.721 27.254 891.721 28.2327Z" fill="white"/>
<path d="M818.554 56.2322C817.445 56.2322 816.545 55.333 816.545 54.2238V7.18389C816.545 5.82456 815.444 4.72261 814.084 4.72261H798.509C797.509 4.72261 796.698 3.91157 796.698 2.91111C796.698 1.91065 797.509 1.09961 798.509 1.09961H838.599C839.599 1.09961 840.41 1.91065 840.41 2.91111C840.41 3.91157 839.599 4.72261 838.599 4.72261H823.024C821.664 4.72261 820.562 5.82456 820.562 7.18389V54.2238C820.562 55.333 819.663 56.2322 818.554 56.2322Z" fill="white"/>
<path d="M784.772 56.2322C783.662 56.2322 782.763 55.333 782.763 54.2238V3.10804C782.763 1.99881 783.662 1.09961 784.772 1.09961C785.881 1.09961 786.78 1.99881 786.78 3.10804V54.2238C786.78 55.333 785.881 56.2322 784.772 56.2322Z" fill="white"/>
<path d="M711.514 56.2322C710.46 56.2322 709.523 55.5611 709.184 54.5632L691.91 3.7592C691.467 2.45423 692.437 1.09961 693.815 1.09961C694.678 1.09961 695.445 1.65001 695.721 2.46763L712.721 52.7883C712.887 53.2805 712.521 53.7906 712.001 53.7906C711.479 53.7906 711.112 53.2751 711.284 52.7816L728.709 2.75136C729.053 1.76234 729.986 1.09961 731.033 1.09961H731.389C732.439 1.09961 733.373 1.76535 733.716 2.75757L751.002 52.8208C751.166 53.2957 750.813 53.7906 750.311 53.7906C749.81 53.7906 749.457 53.2979 749.619 52.8235L766.816 2.36391C767.073 1.60788 767.784 1.09961 768.582 1.09961C769.86 1.09961 770.76 2.35438 770.35 3.56451L753.084 54.5603C752.746 55.5597 751.808 56.2322 750.753 56.2322H750.018C748.969 56.2322 748.035 55.5674 747.692 54.5762L730.79 5.75769C730.708 5.52092 730.884 5.27394 731.135 5.27394C731.385 5.27394 731.561 5.52092 731.479 5.75769L714.578 54.5762C714.234 55.5674 713.301 56.2322 712.252 56.2322H711.514Z" fill="white"/>
<path d="M656.016 56.2322C654.907 56.2322 654.008 55.333 654.008 54.2238V3.10804C654.008 1.99881 654.907 1.09961 656.016 1.09961C657.125 1.09961 658.024 1.99881 658.024 3.10804V54.2238C658.024 55.333 657.125 56.2322 656.016 56.2322Z" fill="white"/>
<path d="M541.712 56.2322C540.352 56.2322 539.25 55.1303 539.25 53.771V3.56089C539.25 2.20156 540.352 1.09961 541.712 1.09961H562.249C568.182 1.09961 572.829 2.30728 576.189 4.72261C579.55 7.13794 581.23 10.6297 581.23 15.1978C581.23 18.1907 580.521 20.7111 579.103 22.7589C577.686 24.8066 575.717 26.3556 573.196 27.4057C571.207 28.2098 569.014 28.6899 566.615 28.8459C565.935 28.8901 565.575 28.0946 566.031 27.5877C566.18 27.4218 566.393 27.3265 566.616 27.3286C570.246 27.3618 573.358 27.9126 575.953 28.981C578.631 30.0836 580.652 31.6851 582.018 33.7854C583.435 35.8857 584.144 38.511 584.144 41.6615C584.144 46.2821 582.464 49.8789 579.103 52.4517C575.743 54.9721 570.65 56.2322 563.824 56.2322H541.712ZM543.267 50.3055C543.267 51.6648 544.369 52.7667 545.729 52.7667H563.824C569.127 52.7667 573.17 51.8741 575.953 50.0889C578.736 48.2511 580.127 45.337 580.127 41.3464C580.127 37.4084 578.736 34.5467 575.953 32.7615C573.17 30.9237 569.127 30.0049 563.824 30.0049H544.527C543.57 30.0049 542.795 29.2291 542.795 28.2721C542.795 27.3152 543.57 26.5394 544.527 26.5394H562.091C566.869 26.5394 570.571 25.6205 573.196 23.7827C575.822 21.945 577.134 19.1884 577.134 15.5129C577.134 11.8899 575.822 9.15947 573.196 7.32172C570.571 5.48397 566.869 4.56509 562.091 4.56509H545.729C544.369 4.56509 543.267 5.66704 543.267 7.02637V50.3055Z" fill="white"/>
<path d="M498.376 56.626C491.55 56.626 486.168 54.6308 482.23 50.6402C478.292 46.6497 476.323 40.7163 476.323 32.8402V3.108C476.323 1.99879 477.222 1.09961 478.331 1.09961C479.441 1.09961 480.34 1.9988 480.34 3.108V32.6827C480.34 39.5612 481.915 44.6544 485.065 47.9623C488.216 51.2703 492.679 52.9243 498.455 52.9243C504.178 52.9243 508.615 51.2703 511.765 47.9623C514.916 44.6544 516.491 39.5612 516.491 32.6827V3.10802C516.491 1.9988 517.39 1.09961 518.499 1.09961C519.609 1.09961 520.508 1.9988 520.508 3.10802V32.8402C520.508 40.7163 518.539 46.6497 514.601 50.6402C510.663 54.6308 505.254 56.626 498.376 56.626Z" fill="white"/>
<path d="M414.187 56.2322C412.828 56.2322 411.726 55.1303 411.726 53.771V3.56089C411.726 2.20156 412.828 1.09961 414.187 1.09961H433.542C439.371 1.09961 444.49 2.28102 448.901 4.64385C453.311 7.00668 456.724 10.2621 459.14 14.4102C461.607 18.5583 462.841 23.3102 462.841 28.6659C462.841 34.0217 461.607 38.7736 459.14 42.9216C456.724 47.0697 453.311 50.3252 448.901 52.688C444.49 55.0508 439.371 56.2322 433.542 56.2322H414.187ZM415.742 50.1479C415.742 51.5073 416.844 52.6092 418.204 52.6092H433.227C438.426 52.6092 442.941 51.5853 446.774 49.5376C450.607 47.4898 453.574 44.6806 455.674 41.1101C457.774 37.4871 458.825 33.3391 458.825 28.6659C458.825 23.9928 457.774 19.871 455.674 16.3005C453.574 12.6775 450.607 9.84207 446.774 7.79429C442.941 5.7465 438.426 4.72261 433.227 4.72261H418.204C416.844 4.72261 415.742 5.82456 415.742 7.18389V50.1479Z" fill="white"/>
<path d="M329.358 56.2322C328.249 56.2322 327.35 55.333 327.35 54.2238V3.37724C327.35 2.11934 328.37 1.09961 329.627 1.09961C330.328 1.09961 330.989 1.42157 331.42 1.97268L369.287 50.3112C369.592 50.7006 369.315 51.2703 368.82 51.2703C368.492 51.2703 368.227 51.0047 368.227 50.6771V3.10802C368.227 1.9988 369.126 1.09961 370.235 1.09961C371.344 1.09961 372.244 1.9988 372.244 3.10802V54.0067C372.244 55.2358 371.247 56.2322 370.018 56.2322C369.335 56.2322 368.689 55.9183 368.267 55.3808L330.308 7.02024C330.002 6.6313 330.279 6.06155 330.774 6.06155C331.101 6.06155 331.367 6.32692 331.367 6.65427V54.2238C331.367 55.333 330.467 56.2322 329.358 56.2322Z" fill="white"/>
<path d="M306.13 56.2322C305.021 56.2322 304.122 55.333 304.122 54.2238V3.10801C304.122 1.9988 305.021 1.09961 306.13 1.09961C307.239 1.09961 308.138 1.9988 308.138 3.10801V54.2238C308.138 55.333 307.239 56.2322 306.13 56.2322Z" fill="white"/>
<path d="M252.075 56.2322C250.966 56.2322 250.067 55.333 250.067 54.2238V7.18389C250.067 5.82456 248.965 4.72261 247.606 4.72261H232.031C231.03 4.72261 230.219 3.91157 230.219 2.91111C230.219 1.91065 231.03 1.09961 232.031 1.09961H272.12C273.12 1.09961 273.932 1.91065 273.932 2.91111C273.932 3.91157 273.12 4.72261 272.12 4.72261H256.545C255.186 4.72261 254.084 5.82456 254.084 7.18389V54.2238C254.084 55.333 253.185 56.2322 252.075 56.2322Z" fill="white"/>
<path d="M206.779 56.6263C202.684 56.6263 198.798 55.9437 195.123 54.5785C192.012 53.3611 189.501 51.8534 187.59 50.0553C187.038 49.5357 186.964 48.6997 187.357 48.051C187.939 47.0897 189.276 46.9374 190.155 47.6364C191.81 48.9512 193.834 50.11 196.225 51.113C199.533 52.4257 203.025 53.082 206.701 53.082C210.376 53.082 213.369 52.6095 215.679 51.6643C218.042 50.6667 219.775 49.354 220.878 47.7263C222.033 46.0986 222.61 44.2871 222.61 42.2918C222.61 39.929 221.98 38.0387 220.72 36.621C219.46 35.2033 217.806 34.0744 215.758 33.2343C213.71 32.3942 211.479 31.6853 209.063 31.1078C206.648 30.5302 204.206 29.9263 201.739 29.2963C199.271 28.6137 197.013 27.7473 194.965 26.6971C192.917 25.647 191.263 24.2293 190.003 22.4441C188.796 20.6063 188.192 18.2435 188.192 15.3556C188.192 12.7302 188.874 10.3149 190.24 8.10958C191.605 5.90427 193.731 4.11903 196.619 2.75384C199.507 1.38865 203.209 0.706055 207.724 0.706055C210.77 0.706055 213.763 1.15237 216.703 2.04499C219.141 2.77208 221.283 3.70819 223.128 4.85332C223.851 5.30134 224.085 6.22422 223.728 6.99523C223.266 7.9911 222.023 8.33009 221.068 7.78826C219.27 6.76742 217.369 5.98191 215.364 5.43171C212.739 4.6441 210.192 4.2503 207.724 4.2503C204.206 4.2503 201.292 4.74911 198.982 5.74675C196.672 6.74439 194.965 8.08332 193.863 9.76356C192.76 11.3913 192.209 13.229 192.209 15.2768C192.209 17.6396 192.812 19.5299 194.02 20.9476C195.28 22.3653 196.934 23.4942 198.982 24.3343C201.03 25.1744 203.288 25.8833 205.755 26.4609C208.223 27.0384 210.665 27.6685 213.08 28.3511C215.496 28.9812 217.727 29.8213 219.775 30.8715C221.823 31.9216 223.477 33.3393 224.737 35.1246C225.997 36.9098 226.627 39.2201 226.627 42.0555C226.627 44.6284 225.918 47.0437 224.501 49.3015C223.083 51.5068 220.904 53.2921 217.963 54.6573C215.075 55.9699 211.347 56.6263 206.779 56.6263Z" fill="white"/>
<path d="M103.718 56.2322C102.746 56.2322 101.865 55.6605 101.47 54.773L78.8101 3.93371C78.2163 2.60157 79.1913 1.09961 80.6497 1.09961C81.4451 1.09961 82.166 1.56766 82.4896 2.29419L104.932 52.6762C105.165 53.2001 104.782 53.7906 104.208 53.7906C103.634 53.7906 103.251 53.1993 103.485 52.6753L126.032 2.22848C126.339 1.54176 127.02 1.09961 127.773 1.09961C129.154 1.09961 130.077 2.52169 129.514 3.78297L106.787 54.773C106.392 55.6605 105.511 56.2322 104.539 56.2322H103.718Z" fill="white"/>
<path d="M25.2367 56.2322C24.1275 56.2322 23.2283 55.333 23.2283 54.2238V3.37726C23.2283 2.11935 24.248 1.09961 25.5059 1.09961C26.206 1.09961 26.8672 1.42157 27.2989 1.97269L65.1654 50.3112C65.4704 50.7006 65.193 51.2703 64.6984 51.2703C64.3708 51.2703 64.1052 51.0047 64.1052 50.6771V3.10801C64.1052 1.9988 65.0044 1.09961 66.1136 1.09961C67.2228 1.09961 68.122 1.9988 68.122 3.10801V54.0066C68.122 55.2358 67.1255 56.2322 65.8964 56.2322C65.2131 56.2322 64.5676 55.9183 64.1457 55.3808L26.1861 7.02025C25.8808 6.6313 26.1579 6.06155 26.6523 6.06155C26.9797 6.06155 27.2451 6.32692 27.2451 6.65428V54.2238C27.2451 55.333 26.3459 56.2322 25.2367 56.2322Z" fill="white"/>
<path d="M2.0084 56.2322C0.899192 56.2322 0 55.333 0 54.2238V3.10802C0 1.9988 0.899192 1.09961 2.0084 1.09961C3.11761 1.09961 4.0168 1.9988 4.0168 3.10801V54.2238C4.0168 55.333 3.11761 56.2322 2.0084 56.2322Z" fill="white"/>
<path d="M991.375 25.8115H1005.55C1007.07 25.8115 1007.91 26.6711 1007.88 28.0894C1007.88 29.152 1007.12 29.989 1006.09 30.1143C1005.63 30.1644 1005.15 30.1894 1004.69 30.1894H977.852C977.296 30.1894 976.712 30.1894 976.206 29.9865C975.221 29.6356 974.662 28.5957 974.84 27.6083C974.993 26.621 975.828 25.9118 976.968 25.8616C977.93 25.8115 978.892 25.8366 979.855 25.8366H991.425L991.375 25.8115Z" fill="white"/>
<path d="M991.219 51.6982H1008.11C1009.8 51.6982 1010.74 52.6355 1010.64 54.104C1010.56 54.966 1010.13 55.5975 1009.29 55.8256C1008.74 56.0035 1008.13 56.0787 1007.55 56.0787H974.434C973.574 56.0787 972.737 55.9509 972.181 55.2166C971.647 54.5099 971.597 53.7256 971.925 52.9136C972.281 52.0791 973.015 51.7233 973.875 51.6982C976.205 51.6481 978.533 51.623 980.864 51.623H991.219V51.6982Z" fill="white"/>
<path d="M991.166 0H1008.23C1009.24 0 1010 0.353342 1010.43 1.26551C1010.97 2.35561 1010.51 3.64618 1009.37 4.02458C1008.59 4.27769 1007.73 4.32781 1006.89 4.35287H986.457C982.761 4.35287 979.064 4.35287 975.368 4.37793C974.837 4.37793 974.306 4.37793 973.774 4.32781C972.356 4.17745 971.672 3.41814 971.722 2.07494C971.772 0.784368 972.556 0.0250597 973.975 0.0250597H991.141L991.166 0Z" fill="white"/>
<path d="M158.305 26.3516H172.231C173.722 26.3516 174.544 27.1958 174.52 28.5889C174.52 29.6325 173.774 30.4545 172.755 30.5776C172.307 30.6268 171.834 30.6514 171.386 30.6514H145.024C144.477 30.6514 143.904 30.6514 143.407 30.4521C142.439 30.1075 141.89 29.086 142.065 28.1163C142.215 27.1466 143.035 26.45 144.155 26.4008C145.1 26.3516 146.045 26.3762 146.99 26.3762H158.354L158.305 26.3516Z" fill="white"/>
<path d="M158.151 51.776H174.738C176.404 51.776 177.325 52.6965 177.224 54.1388C177.15 54.9855 176.727 55.6057 175.905 55.8297C175.358 56.0045 174.76 56.0783 174.189 56.0783H141.666C140.822 56.0783 139.999 55.9528 139.453 55.2316C138.929 54.5375 138.88 53.7672 139.202 52.9697C139.552 52.1501 140.273 51.8006 141.117 51.776C143.406 51.7268 145.692 51.7021 147.981 51.7021H158.151V51.776Z" fill="white"/>
<path d="M158.1 1H174.861C175.855 1 176.601 1.34704 177.024 2.24295C177.546 3.3136 177.098 4.58116 175.981 4.95282C175.21 5.20141 174.364 5.25063 173.544 5.27525H153.475C149.844 5.27525 146.214 5.27525 142.584 5.29986C142.062 5.29986 141.54 5.29986 141.018 5.25063C139.625 5.10296 138.953 4.35719 139.003 3.03794C139.052 1.77038 139.822 1.02461 141.215 1.02461H158.075L158.1 1Z" fill="white"/>
<path d="M1034.38 29.6481V6.33008C1034.38 5.06456 1033.73 4.43055 1032.43 4.43055H1018.25C1016.45 4.43055 1015.39 3.13998 1015.85 1.62136C1016.1 0.759308 1016.68 0.253103 1017.54 0.100239C1017.98 0.0250597 1018.4 0.0250597 1018.83 0.0250597C1030.61 0.0250597 1042.38 0 1054.15 0C1054.59 0 1055.01 0 1055.44 0.075179C1056.84 0.253103 1057.55 1.11265 1057.44 2.48091C1057.37 3.64618 1056.56 4.38043 1055.24 4.38043C1050.3 4.40549 1045.37 4.45561 1040.43 4.45561C1039.35 4.45561 1038.81 4.98688 1038.81 6.04941V54.0788C1038.68 55.4471 1037.85 56.2815 1036.63 56.2815C1035.41 56.2815 1034.48 55.3192 1034.35 54.0036V29.6732L1034.38 29.6481H1034.38Z" fill="white"/>
<path d="M1084.29 8.41319C1082.83 12.1346 1081.46 15.6529 1080.09 19.1989C1075.56 30.8717 1071.03 42.542 1066.52 54.2148C1066.19 55.0743 1065.76 55.8862 1064.8 56.1394C1063.97 56.3674 1063.18 56.2145 1062.57 55.558C1061.94 54.8738 1061.81 54.0644 1062.14 53.2024C1063.2 50.4182 1064.27 47.6316 1065.36 44.8475C1070.87 30.6687 1076.39 16.4899 1081.91 2.31116C1082.04 1.98288 1082.17 1.67715 1082.32 1.37393C1082.75 0.614619 1083.23 -0.0695105 1084.24 0.00566851C1085.26 0.0808476 1086.02 0.561993 1086.4 1.52429C1087.66 4.66426 1088.95 7.80424 1090.17 10.9417C1095.51 24.6644 1100.83 38.3871 1106.14 52.1098C1106.37 52.6661 1106.52 53.3001 1106.57 53.9065C1106.65 55.1219 1106.07 55.9063 1105.06 56.1343C1103.89 56.4125 1102.95 56.0065 1102.47 54.8688C1101.87 53.5006 1101.36 52.1098 1100.83 50.7164C1095.44 36.8409 1090.07 22.9929 1084.67 9.11737C1084.6 8.93944 1084.52 8.78909 1084.32 8.40818H1084.3L1084.29 8.41319Z" fill="white"/>
<path d="M617.02 9.22789C615.572 12.8673 614.223 16.3082 612.876 19.776C608.405 31.1917 603.937 42.605 599.493 54.0207C599.169 54.8613 598.744 55.6553 597.795 55.9029C596.972 56.1259 596.196 55.9764 595.598 55.3343C594.973 54.6652 594.849 53.8736 595.173 53.0306C596.221 50.3078 597.271 47.5825 598.344 44.8597C603.786 30.9932 609.228 17.1267 614.673 3.26026C614.799 2.9392 614.922 2.64021 615.073 2.34367C615.498 1.60108 615.973 0.93202 616.971 1.00554C617.969 1.07907 618.718 1.54962 619.094 2.49071C620.342 5.56153 621.615 8.63235 622.813 11.7007C628.082 25.1212 633.324 38.5416 638.569 51.962C638.793 52.5061 638.944 53.1261 638.994 53.7192C639.068 54.9079 638.494 55.6749 637.496 55.898C636.347 56.17 635.422 55.773 634.95 54.6603C634.35 53.3222 633.851 51.962 633.327 50.5994C628.008 37.0295 622.714 23.4865 617.396 9.91656C617.322 9.74255 617.245 9.5955 617.048 9.22299H617.023L617.02 9.22789Z" fill="white"/>
<path d="M941.016 27.7584C940.635 28.0867 940.307 28.3924 939.979 28.7207C938.257 30.4673 936.536 32.214 934.789 33.9356C934.13 34.5947 933.852 35.3289 933.852 36.2636C933.852 41.9597 933.852 47.6332 933.827 53.3293V54.2665C933.699 55.3291 932.814 56.141 931.749 56.2162C930.662 56.2913 929.749 55.6097 929.521 54.5196C929.421 54.0385 929.369 53.5323 929.369 53.0511V3.14728C929.369 2.61601 929.394 2.08475 929.546 1.57854C929.825 0.59119 930.684 0.00729904 931.724 0.0323587C932.711 0.0323587 933.471 0.638803 933.724 1.67878C933.849 2.18499 933.849 2.71625 933.849 3.25002V26.746C933.849 27.2772 933.899 27.8361 933.949 28.5678C935.165 27.3023 936.202 26.1871 937.267 25.1246C945.116 17.2509 952.99 9.37711 960.864 1.52842C961.27 1.14751 961.698 0.769113 962.154 0.465891C963.217 -0.218238 964.129 -0.140553 964.863 0.643815C965.672 1.53093 965.8 2.6937 964.991 3.58081C963.37 5.37759 961.675 7.12675 959.951 8.82079C954.939 13.8352 949.925 18.8221 944.86 23.809C944.354 24.3152 944.429 24.6184 944.81 25.1246C951.419 34.0885 958.002 43.0498 964.56 52.0137C964.888 52.4697 965.244 52.9258 965.394 53.4571C965.748 54.5196 965.241 55.6097 964.304 56.0658C963.367 56.5219 962.279 56.2938 961.57 55.3566C960.533 54.041 959.545 52.6727 958.558 51.332C952.862 43.6362 947.188 35.9379 941.492 28.242C941.392 28.0892 941.264 27.9639 941.061 27.7609H941.011L941.016 27.7584Z" fill="white"/>
</svg>
