<svg width="44" height="43" viewBox="0 0 44 43" fill="none" xmlns="http://www.w3.org/2000/svg">
<path fill-rule="evenodd" clip-rule="evenodd" d="M21.6763 33.2129C28.1505 33.2129 33.3989 27.9645 33.3989 21.4902C33.3989 15.016 28.1505 9.76758 21.6763 9.76758C15.202 9.76758 9.95361 15.016 9.95361 21.4902C9.95361 27.9645 15.202 33.2129 21.6763 33.2129ZM21.6763 29.3053C25.9924 29.3053 29.4914 25.8063 29.4914 21.4902C29.4914 17.1741 25.9924 13.6751 21.6763 13.6751C17.3601 13.6751 13.8612 17.1741 13.8612 21.4902C13.8612 25.8063 17.3601 29.3053 21.6763 29.3053Z" fill="#003049"/>
<path d="M33.3988 7.81445C32.3198 7.81445 31.4451 8.6892 31.4451 9.76823C31.4451 10.8473 32.3198 11.722 33.3988 11.722C34.4779 11.722 35.3526 10.8473 35.3526 9.76823C35.3526 8.6892 34.4779 7.81445 33.3988 7.81445Z" fill="#003049"/>
<path fill-rule="evenodd" clip-rule="evenodd" d="M1.46251 6.40069C0.184814 8.90831 0.184814 12.191 0.184814 18.7563V24.2268C0.184814 30.7921 0.184814 34.0748 1.46251 36.5823C2.5864 38.7881 4.37973 40.5815 6.58551 41.7053C9.09312 42.9831 12.3758 42.9831 18.9411 42.9831H24.4116C30.9769 42.9831 34.2597 42.9831 36.7671 41.7053C38.973 40.5815 40.7663 38.7881 41.8901 36.5823C43.1679 34.0748 43.1679 30.7921 43.1679 24.2268V18.7563C43.1679 12.191 43.1679 8.90831 41.8901 6.40069C40.7663 4.19492 38.973 2.40158 36.7671 1.27769C34.2597 0 30.9769 0 24.4116 0H18.9411C12.3758 0 9.09312 0 6.58551 1.27769C4.37973 2.40158 2.5864 4.19492 1.46251 6.40069ZM24.4116 3.90755H18.9411C15.5939 3.90755 13.3186 3.9106 11.5599 4.05428C9.84671 4.19425 8.97064 4.44795 8.3595 4.75934C6.88899 5.50862 5.69343 6.70417 4.94416 8.17468C4.63276 8.78582 4.37907 9.6619 4.2391 11.375C4.09542 13.1338 4.09237 15.4091 4.09237 18.7563V24.2268C4.09237 27.574 4.09542 29.8492 4.2391 31.608C4.37907 33.3213 4.63276 34.1973 4.94416 34.8085C5.69343 36.2789 6.88899 37.4744 8.3595 38.2237C8.97064 38.5351 9.84671 38.7889 11.5599 38.9288C13.3186 39.0724 15.5939 39.0755 18.9411 39.0755H24.4116C27.7589 39.0755 30.034 39.0724 31.7928 38.9288C33.5061 38.7889 34.3822 38.5351 34.9933 38.2237C36.4637 37.4744 37.6592 36.2789 38.4085 34.8085C38.7199 34.1973 38.9737 33.3213 39.1136 31.608C39.2572 29.8492 39.2604 27.574 39.2604 24.2268V18.7563C39.2604 15.4091 39.2572 13.1338 39.1136 11.375C38.9737 9.6619 38.7199 8.78582 38.4085 8.17468C37.6592 6.70417 36.4637 5.50862 34.9933 4.75934C34.3822 4.44795 33.5061 4.19425 31.7928 4.05428C30.034 3.9106 27.7589 3.90755 24.4116 3.90755Z" fill="#003049"/>
</svg>
