<svg width="103" height="129" viewBox="0 0 103 129" fill="none" xmlns="http://www.w3.org/2000/svg">
<path d="M58.2223 5H18.3056C10.9571 5 5 10.9571 5 18.3056V111.445C5 118.793 10.9571 124.75 18.3056 124.75H84.8335C92.1822 124.75 98.1391 118.793 98.1391 111.445C98.1391 104.096 98.1391 44.9168 98.1391 44.9168M58.2223 5L98.1391 44.9168M58.2223 5V38.264C58.2223 41.9382 61.2008 44.9168 64.8751 44.9168H98.1391M21.1159 104.851L27.2795 88.8252L44.4472 103.618L51.8435 94.9888L60.4726 102.385L76.9737 83.7537M76.9737 83.7537L72.1834 78.9634L82.6616 76.3573L81.4289 88.0682L76.9737 83.7537Z" stroke="white" stroke-width="8.02594" stroke-linecap="round" stroke-linejoin="round"/>
</svg>
