<svg width="43" height="43" viewBox="0 0 43 43" fill="none" xmlns="http://www.w3.org/2000/svg">
<path d="M10.7454 13.6758C12.3639 13.6758 13.676 12.3637 13.676 10.7451C13.676 9.12655 12.3639 7.81445 10.7454 7.81445C9.1268 7.81445 7.8147 9.12655 7.8147 10.7451C7.8147 12.3637 9.1268 13.6758 10.7454 13.6758Z" fill="#003049"/>
<path d="M7.8147 17.5846C7.8147 16.5056 8.68944 15.6309 9.76847 15.6309H11.7223C12.8013 15.6309 13.676 16.5056 13.676 17.5846V33.2149C13.676 34.2939 12.8013 35.1686 11.7223 35.1686H9.76847C8.68944 35.1686 7.8147 34.2939 7.8147 33.2149V17.5846Z" fill="#003049"/>
<path d="M19.5375 35.1686H21.4913C22.5704 35.1686 23.4451 34.2939 23.4451 33.2149V24.4229C23.4451 21.4922 29.3064 19.5384 29.3064 23.446V33.2156C29.3064 34.2947 30.1811 35.1686 31.2602 35.1686H33.214C34.293 35.1686 35.1677 34.2939 35.1677 33.2149V21.4922C35.1677 17.5846 32.2371 15.6309 28.3295 15.6309C24.422 15.6309 23.4451 18.5615 23.4451 18.5615V17.5846C23.4451 16.5056 22.5704 15.6309 21.4913 15.6309H19.5375C18.4584 15.6309 17.5837 16.5056 17.5837 17.5846V33.2149C17.5837 34.2939 18.4584 35.1686 19.5375 35.1686Z" fill="#003049"/>
<path fill-rule="evenodd" clip-rule="evenodd" d="M37.1218 0C40.359 0 42.9831 2.62422 42.9831 5.86133V37.1218C42.9831 40.359 40.359 42.9831 37.1218 42.9831H5.86133C2.62422 42.9831 0 40.359 0 37.1218V5.86133C0 2.62422 2.62422 0 5.86133 0H37.1218ZM37.1218 3.90755C38.2008 3.90755 39.0755 4.7823 39.0755 5.86133V37.1218C39.0755 38.2008 38.2008 39.0755 37.1218 39.0755H5.86133C4.7823 39.0755 3.90755 38.2008 3.90755 37.1218V5.86133C3.90755 4.7823 4.7823 3.90755 5.86133 3.90755H37.1218Z" fill="#003049"/>
</svg>
