<svg width="298" height="147" viewBox="0 0 298 147" fill="none" xmlns="http://www.w3.org/2000/svg">
<path d="M102.808 43.3237H126.608C129.157 43.3237 130.562 44.7665 130.52 47.1473C130.52 48.9307 129.245 50.3357 127.504 50.546C126.738 50.6301 125.931 50.6722 125.165 50.6722H80.1111C79.1773 50.6722 78.1973 50.6722 77.3476 50.3314C75.6945 49.7426 74.7565 47.9969 75.0552 46.3397C75.3117 44.6824 76.7124 43.492 78.6263 43.4079C80.2415 43.3237 81.8568 43.3658 83.472 43.3658H102.893L102.808 43.3237Z" fill="white"/>
<path d="M103.816 86.7766H132.162C135.01 86.7766 136.583 88.3497 136.41 90.8146C136.284 92.2616 135.561 93.3216 134.156 93.7044C133.222 94.003 132.2 94.1292 131.224 94.1292H75.6418C74.1991 94.1292 72.7942 93.9147 71.8604 92.6822C70.9644 91.4961 70.8803 90.1795 71.4313 88.8166C72.0286 87.4159 73.2611 86.8186 74.7038 86.7766C78.6157 86.6925 82.5234 86.6504 86.4352 86.6504H103.816V86.7766Z" fill="white"/>
<path d="M103.727 0H132.372C134.072 0 135.346 0.59309 136.07 2.12419C136.961 3.95393 136.196 6.12018 134.286 6.75534C132.97 7.18018 131.523 7.2643 130.122 7.30637H95.8236C89.6193 7.30637 83.415 7.30637 77.2107 7.34843C76.3189 7.34843 75.4272 7.34843 74.5355 7.2643C72.1547 7.01192 71.0064 5.73741 71.0905 3.48283C71.1746 1.31658 72.4912 0.0420631 74.872 0.0420631H103.685L103.727 0Z" fill="white"/>
<path d="M176.265 49.7649V10.6251C176.265 8.50096 175.176 7.43676 172.993 7.43676H149.193C146.173 7.43676 144.39 5.27051 145.155 2.72148C145.58 1.27451 146.556 0.424838 148.003 0.168253C148.726 0.0420631 149.446 0.0420631 150.169 0.0420631C169.93 0.0420631 189.692 0 209.453 0C210.177 0 210.896 0 211.619 0.126189C213.958 0.424838 215.148 1.8676 214.976 4.16425C214.85 6.12019 213.487 7.35264 211.279 7.35264C202.992 7.3947 194.706 7.47883 186.415 7.47883C184.601 7.47883 183.694 8.37056 183.694 10.154V90.7722C183.479 93.0689 182.078 94.4696 180.038 94.4696C177.998 94.4696 176.425 92.8544 176.215 90.646V49.807L176.257 49.7649H176.265Z" fill="white"/>
<path d="M260.044 14.1217C257.579 20.3681 255.282 26.2737 252.99 32.2257C245.381 51.8187 237.776 71.4075 230.213 91.0005C229.662 92.4433 228.938 93.8061 227.323 94.2309C225.922 94.6137 224.601 94.3571 223.583 93.2551C222.519 92.1068 222.309 90.7481 222.86 89.3011C224.643 84.6279 226.431 79.9505 228.257 75.2773C237.519 51.478 246.781 27.6786 256.048 3.87932C256.262 3.3283 256.473 2.81513 256.729 2.30616C257.453 1.03165 258.26 -0.116675 259.96 0.0095147C261.659 0.135704 262.933 0.943316 263.573 2.55854C265.697 7.82905 267.863 13.0996 269.903 18.3659C278.871 41.3996 287.793 64.4334 296.719 87.4672C297.101 88.401 297.358 89.4652 297.442 90.4831C297.568 92.5232 296.592 93.8398 294.893 94.2225C292.937 94.6894 291.364 94.008 290.561 92.0983C289.538 89.8017 288.689 87.4672 287.797 85.1285C278.745 61.8381 269.735 38.594 260.683 15.3037C260.557 15.005 260.427 14.7526 260.09 14.1133H260.048L260.044 14.1217Z" fill="white"/>
<path d="M19.5516 46.593C18.9122 47.144 18.3612 47.6572 17.8101 48.2082C14.9204 51.14 12.0307 54.0718 9.09887 56.9615C7.99261 58.0678 7.5257 59.3002 7.5257 60.8692C7.5257 70.4301 7.52571 79.9532 7.48364 89.5142V91.0873C7.26912 92.8708 5.78429 94.2337 3.99661 94.3599C2.17107 94.486 0.63997 93.3419 0.257195 91.5122C0.0889429 90.7046 0.000610352 89.8549 0.000610352 89.0473V5.28276C0.000610352 4.39102 0.0426735 3.49929 0.299259 2.64961C0.766159 0.992323 2.20892 0.0122516 3.95454 0.0543147C5.61183 0.0543147 6.88635 1.07224 7.31118 2.81786C7.5215 3.66754 7.5215 4.55928 7.5215 5.45522V44.8936C7.5215 45.7854 7.60563 46.7234 7.68975 47.9516C9.72981 45.8274 11.4712 43.9556 13.2589 42.1721C26.4331 28.9559 39.6493 15.7397 52.8656 2.56548C53.547 1.92612 54.2663 1.29097 55.0318 0.782007C56.8153 -0.366317 58.3464 -0.235921 59.5788 1.08066C60.9375 2.56969 61.152 4.52142 59.7934 6.01045C57.0719 9.02638 54.2284 11.9624 51.3345 14.8059C42.9218 23.2227 34.505 31.5933 26.004 39.9638C25.1544 40.8135 25.2806 41.3225 25.9199 42.1721C37.012 57.2181 48.0619 72.2599 59.0699 87.3059C59.6209 88.0714 60.2182 88.837 60.4706 89.7287C61.0637 91.5122 60.214 93.3419 58.6408 94.1075C57.0677 94.873 55.2421 94.4902 54.0517 92.9171C52.3103 90.7088 50.653 88.4121 48.9958 86.1618C39.4348 73.2442 29.9117 60.3224 20.3508 47.4048C20.1825 47.1482 19.968 46.9379 19.6273 46.5972H19.5431L19.5516 46.593Z" fill="white"/>
<path d="M79.0374 137.417V112.781H88.258C90.3462 112.781 92.141 113.121 93.6426 113.802C95.1442 114.459 96.2938 115.421 97.0915 116.688C97.9127 117.931 98.3233 119.445 98.3233 121.228C98.3233 122.964 97.9127 124.465 97.0915 125.732C96.2938 126.976 95.1442 127.938 93.6426 128.618C92.141 129.299 90.3462 129.639 88.258 129.639H80.4803L81.6417 128.407V137.417H79.0374ZM81.6417 128.618L80.4803 127.351H88.1877C90.6512 127.351 92.5164 126.823 93.7834 125.768C95.0738 124.688 95.719 123.175 95.719 121.228C95.719 119.257 95.0738 117.732 93.7834 116.653C92.5164 115.573 90.6512 115.034 88.1877 115.034H80.4803L81.6417 113.802V128.618ZM103.954 137.417V112.781H113.175C115.263 112.781 117.058 113.121 118.56 113.802C120.061 114.459 121.211 115.421 122.009 116.688C122.83 117.931 123.24 119.445 123.24 121.228C123.24 122.964 122.83 124.465 122.009 125.732C121.211 126.976 120.061 127.938 118.56 128.618C117.058 129.275 115.263 129.604 113.175 129.604H105.397L106.559 128.407V137.417H103.954ZM120.777 137.417L114.442 128.477H117.258L123.627 137.417H120.777ZM106.559 128.618L105.397 127.386H113.105C115.568 127.386 117.433 126.847 118.7 125.768C119.991 124.688 120.636 123.175 120.636 121.228C120.636 119.257 119.991 117.732 118.7 116.653C117.433 115.573 115.568 115.034 113.105 115.034H105.397L106.559 113.802V128.618ZM140.156 137.628C138.303 137.628 136.578 137.323 134.983 136.713C133.411 136.079 132.038 135.199 130.865 134.073C129.716 132.924 128.812 131.598 128.155 130.096C127.522 128.571 127.205 126.905 127.205 125.099C127.205 123.292 127.522 121.638 128.155 120.137C128.812 118.612 129.716 117.286 130.865 116.16C132.038 115.01 133.411 114.13 134.983 113.52C136.555 112.887 138.279 112.57 140.156 112.57C142.01 112.57 143.722 112.887 145.294 113.52C146.866 114.13 148.227 114.998 149.377 116.125C150.55 117.251 151.453 118.576 152.087 120.101C152.744 121.626 153.072 123.292 153.072 125.099C153.072 126.905 152.744 128.571 152.087 130.096C151.453 131.621 150.55 132.947 149.377 134.073C148.227 135.199 146.866 136.079 145.294 136.713C143.722 137.323 142.01 137.628 140.156 137.628ZM140.156 135.305C141.634 135.305 142.995 135.059 144.239 134.566C145.506 134.05 146.597 133.334 147.512 132.419C148.45 131.481 149.177 130.401 149.694 129.181C150.21 127.938 150.468 126.577 150.468 125.099C150.468 123.621 150.21 122.272 149.694 121.052C149.177 119.808 148.45 118.729 147.512 117.814C146.597 116.875 145.506 116.16 144.239 115.667C142.995 115.151 141.634 114.893 140.156 114.893C138.678 114.893 137.306 115.151 136.039 115.667C134.772 116.16 133.669 116.875 132.73 117.814C131.815 118.729 131.088 119.808 130.548 121.052C130.032 122.272 129.774 123.621 129.774 125.099C129.774 126.554 130.032 127.903 130.548 129.146C131.088 130.39 131.815 131.481 132.73 132.419C133.669 133.334 134.772 134.05 136.039 134.566C137.306 135.059 138.678 135.305 140.156 135.305ZM158.91 137.417V112.781H161.056L172.318 131.997H171.192L182.348 112.781H184.495V137.417H181.996V116.688H182.595L172.318 134.284H171.086L160.74 116.688H161.408V137.417H158.91ZM203.291 137.628C201.437 137.628 199.713 137.323 198.117 136.713C196.546 136.079 195.173 135.199 194 134.073C192.85 132.924 191.947 131.598 191.29 130.096C190.657 128.571 190.34 126.905 190.34 125.099C190.34 123.292 190.657 121.638 191.29 120.137C191.947 118.612 192.85 117.286 194 116.16C195.173 115.01 196.546 114.13 198.117 113.52C199.689 112.887 201.414 112.57 203.291 112.57C205.144 112.57 206.857 112.887 208.429 113.52C210.001 114.13 211.362 114.998 212.512 116.125C213.685 117.251 214.588 118.576 215.221 120.101C215.878 121.626 216.207 123.292 216.207 125.099C216.207 126.905 215.878 128.571 215.221 130.096C214.588 131.621 213.685 132.947 212.512 134.073C211.362 135.199 210.001 136.079 208.429 136.713C206.857 137.323 205.144 137.628 203.291 137.628ZM203.291 135.305C204.769 135.305 206.13 135.059 207.373 134.566C208.64 134.05 209.731 133.334 210.646 132.419C211.585 131.481 212.312 130.401 212.828 129.181C213.344 127.938 213.603 126.577 213.603 125.099C213.603 123.621 213.344 122.272 212.828 121.052C212.312 119.808 211.585 118.729 210.646 117.814C209.731 116.875 208.64 116.16 207.373 115.667C206.13 115.151 204.769 114.893 203.291 114.893C201.813 114.893 200.44 115.151 199.173 115.667C197.906 116.16 196.804 116.875 195.865 117.814C194.95 118.729 194.223 119.808 193.683 121.052C193.167 122.272 192.909 123.621 192.909 125.099C192.909 126.554 193.167 127.903 193.683 129.146C194.223 130.39 194.95 131.481 195.865 132.419C196.804 133.334 197.906 134.05 199.173 134.566C200.44 135.059 201.813 135.305 203.291 135.305Z" fill="white"/>
</svg>
