<svg width="26" height="26" viewBox="0 0 26 26" fill="none" xmlns="http://www.w3.org/2000/svg">
<path fill-rule="evenodd" clip-rule="evenodd" d="M4.88702 1.77273C3.81974 1.77273 2.95455 2.63792 2.95455 3.70519V11.8182H3.29052C3.30337 11.8182 3.31617 11.8182 3.32889 11.8182C3.33519 11.8182 3.34146 11.8182 3.34771 11.8182H22.0801C22.0929 11.8182 22.1057 11.8182 22.1186 11.8182H24.5227C25.0122 11.8182 25.4091 12.215 25.4091 12.7045C25.4091 13.1941 25.0122 13.5909 24.5227 13.5909H24.2061C24.2138 13.644 24.2194 13.6979 24.2229 13.7521C24.2274 13.8204 24.2273 13.8942 24.2273 13.9653V14.0101C24.2273 14.4535 24.2273 14.7134 24.2088 15.0034C24.0411 17.6463 22.6129 20.087 20.5431 21.6828C20.5593 21.7083 20.5744 21.7351 20.5882 21.7627L21.77 24.1263C21.989 24.5642 21.8115 25.0966 21.3737 25.3155C20.9358 25.5345 20.4034 25.357 20.1845 24.9191L19.0409 22.6318C18.0933 23.1115 17.0629 23.4272 15.9911 23.5357C15.7021 23.565 15.5258 23.5716 15.2254 23.5828L15.2174 23.5832C14.3427 23.616 13.4863 23.6364 12.7045 23.6364C11.9228 23.6364 11.0664 23.616 10.1916 23.5832L10.1837 23.5828C9.88329 23.5716 9.70696 23.565 9.41803 23.5357C8.34626 23.4272 7.31579 23.1115 6.36824 22.6318L5.22461 24.9191C5.00569 25.357 4.47326 25.5345 4.03542 25.3155C3.59758 25.0966 3.42011 24.5642 3.63903 24.1263L4.82085 21.7627C4.83469 21.7351 4.84978 21.7083 4.86602 21.6828C2.79613 20.087 1.36795 17.6463 1.20021 15.0034C1.18181 14.7134 1.18181 14.4534 1.18182 14.01V13.9841C1.18182 13.9778 1.18182 13.9716 1.18181 13.9653C1.18181 13.9434 1.18179 13.9213 1.18191 13.8991C1.18185 13.8949 1.18182 13.8906 1.18182 13.8864V13.5909H0.886364C0.396843 13.5909 0 13.1941 0 12.7045C0 12.215 0.396843 11.8182 0.886364 11.8182H1.18182V3.70519C1.18182 1.65887 2.84069 0 4.88702 0C6.40209 0 7.76452 0.922409 8.3272 2.32912L8.45736 2.65452C9.39489 2.41669 10.4122 2.4718 11.3711 2.88143C12.571 3.39405 13.4441 4.36125 13.8912 5.49608C14.0667 5.94152 13.8568 6.44584 13.4171 6.63515L6.37254 9.66779C6.15221 9.76263 5.90286 9.76415 5.68141 9.67195C5.45996 9.57977 5.28534 9.40178 5.1974 9.1786C4.75042 8.04422 4.72363 6.73063 5.22036 5.50744C5.57396 4.63669 6.14798 3.9228 6.85059 3.41081L6.68127 2.98749C6.3878 2.25382 5.67721 1.77273 4.88702 1.77273ZM3.34771 13.5909C3.30036 13.5909 3.27218 13.5909 3.2509 13.5911C3.2354 13.5914 3.22989 13.5916 3.22968 13.5916C3.2289 13.5916 3.22963 13.5916 3.22968 13.5916C3.08189 13.6012 2.96523 13.7187 2.95522 13.8664C2.95516 13.8678 2.95496 13.8737 2.95481 13.8873C2.95456 13.9086 2.95455 13.9367 2.95455 13.9841C2.95455 14.4599 2.95491 14.6632 2.96938 14.891C3.18852 18.3439 6.15446 21.4234 9.59665 21.772C9.82705 21.7953 9.95458 21.8003 10.2582 21.8118C11.1185 21.844 11.9516 21.8636 12.7045 21.8636C13.4575 21.8636 14.2905 21.844 15.1509 21.8118C15.4545 21.8003 15.582 21.7953 15.8125 21.772C19.2547 21.4234 22.2205 18.3439 22.4398 14.891C22.4542 14.6632 22.4545 14.4599 22.4545 13.9841C22.4545 13.9367 22.4545 13.9086 22.4543 13.8873C22.4542 13.8753 22.454 13.8692 22.454 13.8671C22.4538 13.8656 22.4538 13.8657 22.454 13.8671C22.4443 13.719 22.3263 13.6012 22.1782 13.5915C22.1797 13.5916 22.18 13.5916 22.1782 13.5915C22.1759 13.5915 22.1697 13.5913 22.1581 13.5911C22.1369 13.5909 22.1087 13.5909 22.0614 13.5909H3.34771ZM10.6747 4.51163C9.8978 4.17976 9.05807 4.22593 8.34024 4.57537C7.70341 4.8854 7.16321 5.43471 6.86283 6.17442C6.66958 6.65028 6.5997 7.14593 6.63766 7.62365L11.8153 5.39466C11.5206 5.01492 11.1343 4.70801 10.6747 4.51163Z" fill="#F2F2F2"/>
</svg>
